<svg width="391" height="88" viewBox="0 0 391 88" fill="none" xmlns="http://www.w3.org/2000/svg">
<path d="M51.1932 16.8091L39.2576 35.5425L61.548 36.5701L51.1932 16.8091Z" stroke="white" stroke-linecap="round" stroke-linejoin="round"/>
<path d="M37.1233 42.7351L46.1343 11.5127L68.7409 34.7517L37.1233 42.7351Z" stroke="white" stroke-linecap="round" stroke-linejoin="round"/>
<path d="M36.728 51.4301L38.8622 6.92822L76.092 30.8786L36.728 51.4301Z" stroke="white" stroke-linecap="round" stroke-linejoin="round"/>
<path d="M50.6397 87L1 1H100.042L50.6397 87Z" stroke="white" stroke-linecap="round" stroke-linejoin="round"/>
<path d="M42.9725 73.7209L16.1765 1.07935L92.5331 14.1216L42.9725 73.7209Z" stroke="white" stroke-linecap="round" stroke-linejoin="round"/>
<path d="M38.3088 61.3897L29.2188 3.29224L83.9173 24.4761L38.3088 61.3897Z" stroke="white" stroke-linecap="round" stroke-linejoin="round"/>
<path d="M167.47 29.0435H181.237C186.421 29.0435 190.623 33.2459 190.623 38.43V38.43C190.623 43.614 186.421 47.8165 181.237 47.8165H168.744V58.9565M259.658 29.0435H238.417V43.4842M259.658 58.1313H238.417V43.4842M259.658 43.4842H238.417M337.615 29.0435H350.854C356.095 29.0435 360.344 33.2921 360.344 38.5331V38.5331C360.344 43.7741 356.095 48.0228 350.854 48.0228H338.465V58.1313M360.344 58.1313L352.697 47.8165M377.762 58.1313V29.0435M365.017 29.0435H377.868H389.87M287.697 31.519C285.573 30.35 283.661 29.0435 277.926 29.0435C273.89 29.0435 268.792 30.0749 268.367 35.645C268.367 38.9457 269.26 42.494 277.926 43.4842C281.466 43.9656 287.697 45.9598 288.122 50.292C288.424 53.3726 287.655 56.4809 281.537 58.1313C278.28 58.4751 270.746 58.2138 266.668 54.418M126.261 29.0435L142.829 57.0998L160.035 29.0435H126.261ZM201.244 29.0435V58.1313H213.889C221.922 58.1313 228.433 51.6198 228.433 43.5874V43.5874C228.433 35.555 221.922 29.0435 213.889 29.0435H201.244ZM296.831 58.1313H330.181L313.612 29.0435L296.831 58.1313Z" stroke="white" stroke-width="2" stroke-linecap="round" stroke-linejoin="round"/>
</svg>
